<svg xmlns="http://www.w3.org/2000/svg" width="34" height="34" viewBox="0 0 34 34">
  <defs>
    <style>
      .cls-1 {
        fill: #00ab9f;
        fill-rule: evenodd;
      }
    </style>
  </defs>
  <path id="10" data-name="4" class="cls-1" d="M22.708,21.218a1.366,1.366,0,0,1-1.461-1.241,1.48,1.48,0,0,1,2.922,0,0.664,0.664,0,0,0,1.328,0A2.609,2.609,0,0,0,23.372,17.5V17.164a0.664,0.664,0,0,0-1.328,0V17.5a2.609,2.609,0,0,0-2.125,2.473,2.679,2.679,0,0,0,2.789,2.546,1.366,1.366,0,0,1,1.461,1.242,1.48,1.48,0,0,1-2.922,0,0.664,0.664,0,0,0-1.328,0,2.609,2.609,0,0,0,2.125,2.474v0.281a0.664,0.664,0,0,0,1.328,0V26.238A2.609,2.609,0,0,0,25.5,23.764,2.679,2.679,0,0,0,22.708,21.218Zm7.273-3.879a8.6,8.6,0,0,0-3.534-3.072,0.669,0.669,0,0,0-.886.305,0.647,0.647,0,0,0,.311.87,7.208,7.208,0,0,1,4.144,6.47,7.084,7.084,0,0,1-.851,3.364,0.647,0.647,0,0,0,.274.882,0.675,0.675,0,0,0,.311.077,0.666,0.666,0,0,0,.587-0.346A8.358,8.358,0,0,0,29.981,17.339Zm-6.229-3.9H23.707a0.652,0.652,0,1,0,0,1.3h0.042A0.652,0.652,0,1,0,23.752,13.434Zm-4.2,14.948a7.208,7.208,0,0,1-4.144-6.47,7.086,7.086,0,0,1,.851-3.365,0.646,0.646,0,0,0-.274-0.882,0.67,0.67,0,0,0-.9.269,8.358,8.358,0,0,0,.355,8.551,8.6,8.6,0,0,0,3.534,3.072,0.672,0.672,0,0,0,.287.064,0.665,0.665,0,0,0,.6-0.37A0.647,0.647,0,0,0,19.55,28.382Zm2.164,0.7H21.676a0.652,0.652,0,1,0-.006,1.3h0.044A0.652,0.652,0,1,0,21.715,29.086Zm4.011-17.859a2.946,2.946,0,0,0-.295-0.532H27.16a3,3,0,1,0,0-6H21.842A2.945,2.945,0,0,0,22.379,3a3.031,3.031,0,0,0-3.055-3H3.055A3.031,3.031,0,0,0,0,3,3.031,3.031,0,0,0,3.055,6H8.372a2.948,2.948,0,0,0,0,3.391H6.64a3.031,3.031,0,0,0-3.055,3,2.975,2.975,0,0,0,1.156,2.347,2.962,2.962,0,0,0,0,4.7,2.961,2.961,0,0,0,0,4.7,2.976,2.976,0,0,0-1.156,2.348,3.031,3.031,0,0,0,3.055,3h7.826A11.356,11.356,0,0,0,22.711,33,11.066,11.066,0,0,0,25.726,11.228ZM27.16,6a1.7,1.7,0,1,1,0,3.391H10.891a1.7,1.7,0,1,1,0-3.391H27.16ZM3.055,4.695A1.713,1.713,0,0,1,1.328,3,1.714,1.714,0,0,1,3.055,1.3h16.27A1.713,1.713,0,0,1,21.051,3a1.713,1.713,0,0,1-1.726,1.7H3.055Zm3.586,6H22.91a1.751,1.751,0,0,1,.753.17c-0.314-.026-0.632-0.04-0.952-0.04a11.359,11.359,0,0,0-7.989,3.261H6.64A1.7,1.7,0,1,1,6.64,10.7Zm0,4.7h6.947a10.984,10.984,0,0,0-1.707,3.391H6.64A1.7,1.7,0,1,1,6.64,15.391Zm0,4.7h4.935a10.9,10.9,0,0,0-.041,3.391H6.64A1.7,1.7,0,1,1,6.64,20.086Zm0,8.087a1.7,1.7,0,1,1,0-3.391h5.165A10.952,10.952,0,0,0,13.4,28.173H6.64ZM22.711,31.7a9.784,9.784,0,1,1,9.961-9.783A9.884,9.884,0,0,1,22.711,31.7Z" transform="translate(0 0.5)"/>
</svg>
