<svg aria-hidden="true" style="position: absolute; width: 0; height: 0; overflow: hidden;" version="1.1" xmlns="http://www.w3.org/2000/svg" xmlns:xlink="http://www.w3.org/1999/xlink">
<defs>
<symbol id="icon-quote" viewBox="0 0 32 32">
<title>quote</title>
<path d="M10.242 14.75c-0.788-0.227-1.576-0.342-2.343-0.342-1.184 0-2.172 0.271-2.938 0.602 0.739-2.704 2.513-7.369 6.047-7.894 0.33-0.051 0.594-0.287 0.683-0.598l0.001-0.006 0.772-2.763c0.020-0.068 0.031-0.146 0.031-0.226 0-0.423-0.313-0.773-0.721-0.831l-0.004-0.001c-0.237-0.034-0.511-0.054-0.79-0.054h-0c-4.242 0-8.443 4.428-10.216 10.767-1.041 3.719-1.346 9.311 1.218 12.831 1.434 1.969 3.527 3.021 6.22 3.126l0.033 0.001c3.323 0 6.269-2.238 7.165-5.441 0.177-0.603 0.279-1.295 0.279-2.011 0-1.34-0.357-2.597-0.98-3.681l0.019 0.036c-0.965-1.714-2.555-2.963-4.476-3.516zM31.041 18.266c-0.965-1.714-2.555-2.963-4.476-3.516-0.788-0.227-1.576-0.342-2.343-0.342-0.007-0-0.014-0-0.022-0-1.054 0-2.057 0.221-2.963 0.62l0.047-0.019c0.738-2.704 2.513-7.369 6.047-7.894 0.33-0.051 0.594-0.287 0.683-0.598l0.001-0.006 0.772-2.763c0.020-0.068 0.031-0.146 0.031-0.226 0-0.423-0.313-0.773-0.721-0.831l-0.004-0.001c-0.237-0.034-0.511-0.054-0.79-0.054h-0c-4.242 0-8.443 4.428-10.216 10.767-1.040 3.719-1.345 9.311 1.218 12.832 1.434 1.969 3.527 3.021 6.22 3.126l0.033 0.001c3.322 0 6.269-2.238 7.165-5.441 0.177-0.602 0.278-1.294 0.278-2.010 0-1.341-0.357-2.598-0.98-3.683l0.019 0.036z"></path>
</symbol>
</defs>
</svg>
