<?xml version="1.0" encoding="iso-8859-1"?>
<!-- Generator: Adobe Illustrator 19.0.0, SVG Export Plug-In . SVG Version: 6.00 Build 0)  -->
<svg version="1.1" id="icon" xmlns="http://www.w3.org/2000/svg" xmlns:xlink="http://www.w3.org/1999/xlink" x="0px" y="0px"
	 viewBox="0 0 505 505" style="enable-background:new 0 0 505 505;" xml:space="preserve">
<circle cx="252.5" cy="252.5" r="252.5"/>
<path style="fill:#E6E9EE;" d="M252.5,415.3c-89.8,0-162.8-73-162.8-162.8s73-162.8,162.8-162.8s162.8,73,162.8,162.8
	S342.3,415.3,252.5,415.3z M252.5,121.3c-72.4,0-131.2,58.9-131.2,131.2s58.8,131.2,131.2,131.2s131.2-58.8,131.2-131.2
	S324.9,121.3,252.5,121.3z"/>
<g>
	<path style="fill:#FFFFFF;" d="M447.8,268.3h-82.5c-8.7,0-15.8-7.1-15.8-15.8s7.1-15.8,15.8-15.8h82.5c8.7,0,15.8,7.1,15.8,15.8
		C463.6,261.2,456.5,268.3,447.8,268.3z"/>
	<path style="fill:#FFFFFF;" d="M139.7,268.3H57.2c-8.7,0-15.8-7.1-15.8-15.8s7.1-15.8,15.8-15.8h82.5c8.7,0,15.8,7.1,15.8,15.8
		C155.5,261.2,148.4,268.3,139.7,268.3z"/>
	<path style="fill:#FFFFFF;" d="M252.5,463.6c-8.7,0-15.8-7.1-15.8-15.8v-82.5c0-8.7,7.1-15.8,15.8-15.8c8.7,0,15.8,7.1,15.8,15.8
		v82.5C268.3,456.5,261.2,463.6,252.5,463.6z"/>
	<path style="fill:#FFFFFF;" d="M252.5,155.5c-8.7,0-15.8-7.1-15.8-15.8V57.2c0-8.7,7.1-15.8,15.8-15.8c8.7,0,15.8,7.1,15.8,15.8
		v82.5C268.3,148.4,261.2,155.5,252.5,155.5z"/>
	<circle style="fill:#FFFFFF;" cx="252.5" cy="252.5" r="51"/>
</g>
<g>
</g>
<g>
</g>
<g>
</g>
<g>
</g>
<g>
</g>
<g>
</g>
<g>
</g>
<g>
</g>
<g>
</g>
<g>
</g>
<g>
</g>
<g>
</g>
<g>
</g>
<g>
</g>
<g>
</g>
</svg>
