<?xml version="1.0" encoding="UTF-8"?>
<svg xmlns="http://www.w3.org/2000/svg" xmlns:xlink="http://www.w3.org/1999/xlink" viewBox="0 0 30 30" version="1.1">
<g id="icon">
<path d="M 15 9.546875 C 11.988281 9.546875 9.546875 11.988281 9.546875 15 C 9.546875 18.011719 11.988281 20.453125 15 20.453125 C 18.015625 20.453125 20.453125 18.011719 20.453125 15 C 20.453125 11.988281 18.011719 9.546875 15 9.546875 Z M 27.191406 13.636719 C 26.5625 7.949219 22.050781 3.4375 16.363281 2.808594 L 16.363281 0 L 13.636719 0 L 13.636719 2.808594 C 7.949219 3.4375 3.4375 7.949219 2.808594 13.636719 L 0 13.636719 L 0 16.363281 L 2.808594 16.363281 C 3.4375 22.050781 7.949219 26.5625 13.636719 27.191406 L 13.636719 30 L 16.363281 30 L 16.363281 27.191406 C 22.050781 26.5625 26.5625 22.050781 27.191406 16.363281 L 30 16.363281 L 30 13.636719 Z M 15 24.546875 C 9.730469 24.546875 5.453125 20.269531 5.453125 15 C 5.453125 9.730469 9.730469 5.453125 15 5.453125 C 20.269531 5.453125 24.546875 9.730469 24.546875 15 C 24.546875 20.269531 20.269531 24.546875 15 24.546875 Z M 15 24.546875 "/>
</g>
</svg>
