<svg aria-hidden="true" style="position:absolute;width:0;height:0" xmlns="http://www.w3.org/2000/svg" overflow="hidden"><defs><symbol id="youtube" viewBox="0 0 32 32"><path fill="var(--color1, #d42428)" d="M32 16c0 8.837-7.163 16-16 16S0 24.837 0 16 7.163 0 16 0s16 7.163 16 16z"/><path fill="var(--color2, #cc202d)" d="M27.313 4.685c6.248 6.249 6.249 16.38 0 22.629s-16.38 6.249-22.629 0L27.313 4.685z"/><path fill="var(--color3, #ba202e)" d="M31.678 19.205l-7.919-7.919-9.34 1.063-5.649 8.746 10.556 10.556a16.02 16.02 0 0012.352-12.447z"/><path fill="var(--color4, #fff)" d="M24.373 12.912a2.428 2.428 0 00-2.427-2.428H10.559a2.428 2.428 0 00-2.427 2.428v6.512a2.428 2.428 0 002.427 2.428h11.387a2.427 2.427 0 002.427-2.428v-6.512zm-9.745 6.004V12.8l4.638 3.058-4.638 3.058z"/></symbol><symbol id="telegram" viewBox="0 0 32 32"><path fill="var(--color5, #039be5)" d="M32 16c0 8.837-7.163 16-16 16S0 24.837 0 16 7.163 0 16 0s16 7.163 16 16z"/><path fill="var(--color4, #fff)" d="M7.321 15.653l15.427-5.948c.716-.259 1.341.175 1.109 1.257l.001-.001-2.627 12.375c-.195.877-.716 1.091-1.445.677l-4-2.948-1.929 1.859c-.213.213-.393.393-.807.393l.284-4.071 7.413-6.697c.323-.284-.072-.444-.497-.161l-9.161 5.768-3.949-1.232c-.857-.272-.876-.857.181-1.271z"/></symbol><symbol id="facebook" viewBox="0 0 32 32"><path fill="var(--color6, #3b5998)" d="M32 16c0 8.837-7.163 16-16 16S0 24.837 0 16 7.163 0 16 0s16 7.163 16 16z"/><path fill="var(--color4, #fff)" d="M20.022 16.626h-2.855v10.459h-4.326V16.626h-2.057V12.95h2.057v-2.379c0-1.701.808-4.365 4.364-4.365l3.204.013v3.568h-2.325c-.381 0-.918.191-.918 1.002v2.163h3.233l-.378 3.672z"/></symbol></defs></svg>